<?xml version="1.0" standalone="no"?>
<!DOCTYPE svg PUBLIC "-//W3C//DTD SVG 20010904//EN"
 "http://www.w3.org/TR/2001/REC-SVG-20010904/DTD/svg10.dtd">
<svg version="1.0" xmlns="http://www.w3.org/2000/svg"
 width="1600.000000pt" height="1252.000000pt" viewBox="0 0 1600.000000 1252.000000"
 preserveAspectRatio="xMidYMid meet">

<g transform="translate(0.000000,1252.000000) scale(0.100000,-0.100000)"
fill="#000000" stroke="none">
<path d="M6773 9413 c-44 -49 -137 -153 -208 -233 -71 -80 -167 -188 -214
-240 -47 -53 -120 -134 -161 -180 -97 -109 -173 -194 -224 -250 -23 -25 -59
-65 -80 -90 -22 -25 -74 -83 -116 -130 -42 -47 -101 -112 -130 -145 -179 -202
-360 -405 -415 -463 l-51 -54 -304 -34 c-355 -39 -567 -68 -960 -130 -268 -42
-914 -164 -907 -171 2 -2 138 10 303 27 575 57 1340 113 1979 145 2411 120
5095 65 7224 -150 135 -14 246 -23 248 -21 5 5 -598 121 -807 155 -288 47
-724 108 -959 134 l-214 25 -36 38 c-20 22 -54 59 -75 84 -22 25 -74 83 -116
130 -42 47 -94 105 -116 130 -21 24 -47 54 -58 65 -10 11 -66 74 -125 139 -58
66 -134 151 -168 189 l-63 69 0 289 0 289 -170 0 -170 0 0 -90 c0 -49 -3 -90
-8 -90 -6 0 -53 51 -207 224 -254 287 -380 426 -386 426 -4 0 -14 -8 -21 -19
-7 -10 -45 -54 -84 -97 -39 -43 -153 -171 -254 -284 -414 -464 -490 -549 -587
-658 -57 -63 -103 -119 -103 -125 0 -7 36 -50 80 -97 44 -47 80 -88 80 -92 1
-27 50 21 248 245 122 139 234 266 250 282 15 17 61 68 102 115 41 47 77 87
80 90 3 3 45 50 94 105 50 55 96 107 103 115 12 13 17 11 41 -15 32 -36 283
-317 321 -360 14 -17 87 -98 161 -180 75 -83 225 -251 335 -374 110 -123 253
-283 317 -355 65 -72 117 -135 118 -140 0 -5 -26 -6 -57 -2 -298 32 -1026 72
-1666 92 l-217 7 -123 136 c-67 75 -156 174 -197 221 -41 47 -77 87 -80 90 -3
3 -64 70 -135 150 -174 195 -178 199 -291 326 -54 60 -128 143 -164 184 -36
41 -90 102 -120 135 -30 33 -144 160 -253 283 -109 122 -199 222 -201 222 -2
0 -39 -39 -83 -87z m97 -330 c0 -5 17 -26 38 -48 40 -43 142 -158 527 -590
137 -154 252 -282 255 -285 3 -3 39 -43 80 -90 41 -47 77 -87 80 -90 3 -3 47
-51 98 -108 84 -94 105 -133 65 -118 -20 8 -1087 -11 -1368 -24 -314 -15 -735
-39 -907 -54 -82 -6 -148 -8 -148 -4 0 4 116 137 258 296 141 159 347 389 457
513 516 579 565 631 565 602z"/>
<path d="M11013 1828 c-38 -74 -223 -451 -223 -455 0 -1 21 -3 46 -3 42 0 47
3 57 30 l11 30 128 0 127 0 16 -30 c14 -27 21 -30 60 -30 25 0 45 1 45 3 0 1
-55 114 -123 250 l-122 248 -22 -43z m66 -226 c23 -45 41 -84 41 -87 0 -3 -41
-5 -90 -5 l-91 0 47 90 c25 50 48 89 50 88 1 -2 21 -41 43 -86z"/>
<path d="M1943 1623 c-64 -131 -118 -241 -120 -245 -2 -5 17 -8 42 -8 43 0 48
3 58 30 l11 30 131 0 130 0 13 -30 c12 -27 18 -30 58 -30 24 0 44 2 44 4 0 2
-52 108 -115 235 -63 128 -115 236 -115 241 0 39 -37 -22 -137 -227z m166 -19
c23 -47 39 -89 37 -92 -2 -4 -43 -6 -90 -4 l-85 3 44 90 c25 49 47 89 49 89 3
0 23 -39 45 -86z"/>
<path d="M2710 1615 l0 -245 45 0 45 0 0 125 c0 69 4 125 9 125 5 0 37 -31 72
-70 34 -38 67 -70 72 -70 5 0 38 32 74 70 36 39 69 67 74 64 5 -3 9 -59 9
-125 l0 -119 40 0 40 0 0 245 c0 135 -1 245 -3 245 -3 0 -142 -154 -218 -242
-16 -17 -22 -12 -130 111 -63 71 -117 130 -121 130 -5 1 -8 -109 -8 -244z"/>
<path d="M3456 1850 c-67 -21 -139 -92 -165 -163 -32 -85 5 -208 81 -268 52
-42 100 -58 173 -58 128 -1 228 81 256 207 21 100 -37 214 -135 264 -46 24
-162 34 -210 18z m170 -85 c51 -21 87 -78 92 -143 3 -50 0 -63 -26 -103 -36
-55 -82 -79 -154 -79 -62 0 -103 21 -144 75 -22 30 -27 46 -27 94 0 67 22 113
71 143 64 40 116 43 188 13z"/>
<path d="M3892 1613 l3 -248 45 0 45 0 3 137 3 137 131 -135 c73 -73 136 -134
140 -134 5 0 7 109 6 243 l-3 242 -45 0 -45 0 -5 -130 -5 -130 -133 133 c-73
72 -135 132 -138 132 -2 0 -3 -111 -2 -247z"/>
<path d="M5437 1846 c-52 -19 -103 -60 -135 -109 -37 -58 -43 -165 -13 -224
32 -64 71 -104 126 -129 158 -74 345 36 345 203 l0 44 -87 -2 c-118 -3 -123
-4 -123 -45 l0 -34 60 0 c66 0 71 -6 39 -51 -44 -63 -150 -82 -213 -38 -57 39
-81 84 -81 154 0 52 4 67 28 98 46 60 107 82 187 67 39 -7 48 -6 68 13 30 28
28 36 -13 53 -43 17 -138 18 -188 0z"/>
<path d="M6170 1612 l0 -252 45 0 45 0 0 135 c0 74 3 135 8 135 4 0 66 -58
137 -130 71 -71 130 -128 132 -126 3 2 5 377 3 469 0 14 -9 17 -45 17 l-45 0
0 -130 c0 -71 -3 -130 -7 -130 -4 0 -67 60 -140 132 l-133 133 0 -253z"/>
<path d="M7588 1838 c-14 -23 -228 -457 -228 -464 0 -2 20 -4 44 -4 39 0 45 3
56 30 l12 30 129 0 128 0 16 -30 c14 -27 21 -30 60 -30 l45 0 -30 60 c-16 33
-70 143 -120 245 -49 102 -91 185 -93 185 -3 0 -11 -10 -19 -22z m15 -326
c-47 -2 -87 -1 -89 1 -2 1 18 43 43 92 l47 90 42 -90 42 -90 -85 -3z"/>
<path d="M8622 1840 c-69 -31 -101 -58 -132 -113 -33 -57 -39 -119 -19 -192
14 -53 111 -149 165 -164 77 -21 199 -7 211 25 3 8 -5 26 -17 39 -19 20 -26
22 -43 13 -29 -15 -109 -13 -143 5 -53 28 -104 103 -104 154 0 43 24 97 56
129 43 41 100 58 166 49 39 -6 53 -4 69 11 27 25 24 38 -14 52 -51 18 -145 15
-195 -8z"/>
<path d="M9120 1851 c-51 -16 -89 -42 -122 -81 -103 -120 -66 -307 77 -383 32
-17 57 -22 125 -22 98 0 145 19 200 81 45 52 60 93 60 164 0 71 -15 112 -60
164 -48 54 -102 79 -185 82 -38 2 -81 0 -95 -5z m192 -102 c67 -48 87 -150 44
-223 -67 -115 -236 -116 -309 -3 -65 100 -4 234 115 256 52 9 111 -3 150 -30z"/>
<path d="M9550 1612 l0 -253 43 3 42 3 3 133 c1 72 6 132 10 132 4 0 66 -60
139 -132 l133 -133 0 248 0 248 -47 -3 -48 -3 -3 -130 -3 -129 -134 134 -135
135 0 -253z"/>
<path d="M11482 1829 c-118 -59 -166 -166 -131 -294 14 -53 111 -149 165 -164
77 -21 199 -7 211 25 3 8 -5 26 -17 39 -19 20 -26 22 -42 14 -35 -19 -115 -12
-158 12 -55 31 -95 111 -86 170 10 60 31 96 78 127 36 23 51 27 118 27 76 0
110 12 110 39 0 19 -61 36 -127 36 -47 0 -73 -7 -121 -31z"/>
<path d="M12382 1615 l3 -250 40 0 40 0 3 133 c1 72 6 132 10 132 4 0 66 -60
139 -132 l133 -133 0 248 0 247 -45 0 -45 0 0 -130 c0 -71 -3 -130 -7 -130 -4
0 -67 60 -141 133 l-132 132 2 -250z"/>
<path d="M13006 1840 c-66 -33 -103 -68 -130 -122 -47 -95 -28 -204 50 -282
58 -59 116 -80 197 -74 97 8 161 51 198 133 22 46 25 124 7 126 -51 6 -157 7
-175 2 -18 -4 -23 -12 -23 -39 l0 -34 60 0 c67 0 74 -9 39 -54 -35 -45 -78
-60 -163 -57 -20 1 -42 14 -71 44 -133 133 -25 336 158 295 36 -8 43 -6 65 16
29 29 23 42 -26 56 -59 16 -142 12 -186 -10z"/>
<path d="M2380 1610 l0 -240 116 0 115 0 -3 38 -3 37 -72 3 -73 3 0 199 0 200
-40 0 -40 0 0 -240z"/>
<path d="M4357 1843 c-4 -3 -7 -19 -7 -35 0 -27 2 -28 50 -28 l50 0 0 -189 c0
-104 3 -196 6 -205 4 -11 19 -16 45 -16 l39 0 2 203 3 202 48 3 c46 3 47 4 47
38 l0 34 -138 0 c-76 0 -142 -3 -145 -7z"/>
<path d="M4730 1610 l0 -240 115 0 115 0 0 45 0 45 -75 0 -75 0 0 60 0 59 68
3 67 3 3 43 3 42 -71 0 -71 0 3 48 3 47 73 3 72 3 0 39 0 40 -115 0 -115 0 0
-240z"/>
<path d="M5850 1610 l0 -240 116 0 115 0 -3 43 -3 42 -72 3 -73 3 0 59 0 59
68 3 67 3 3 43 3 42 -71 0 -71 0 3 48 3 47 73 3 72 3 0 39 0 40 -115 0 -115 0
0 -240z"/>
<path d="M6634 1837 c-2 -7 -3 -114 -2 -237 l3 -225 115 0 115 0 0 40 0 40
-60 2 c-33 1 -66 2 -72 2 -9 1 -13 20 -13 61 0 41 4 60 13 61 6 0 37 1 67 2
l55 2 0 40 0 40 -68 3 -68 3 3 47 3 47 73 3 72 3 0 39 0 40 -115 0 c-84 0
-117 -3 -121 -13z"/>
<path d="M6952 1613 l3 -238 43 -3 42 -3 0 200 0 201 29 0 c46 0 91 -44 91
-88 0 -51 -32 -101 -70 -109 -17 -3 -30 -9 -30 -12 0 -4 28 -47 63 -97 63 -89
63 -89 110 -92 26 -2 47 0 47 3 0 3 -22 38 -50 78 -53 77 -58 92 -36 100 20 8
56 89 56 128 0 45 -37 117 -73 143 -23 17 -47 22 -128 24 l-99 4 2 -239z"/>
<path d="M7920 1610 l0 -240 115 0 115 0 0 40 0 40 -75 0 -75 0 0 200 0 200
-40 0 -40 0 0 -240z"/>
<path d="M10010 1815 l0 -35 50 0 50 0 0 -206 0 -205 43 3 42 3 3 203 2 202
45 0 c45 0 45 0 45 35 l0 35 -140 0 -140 0 0 -35z"/>
<path d="M10385 1838 c-3 -8 -5 -116 -3 -239 l3 -224 43 -3 42 -3 0 202 0 202
41 -6 c103 -14 112 -152 13 -193 l-35 -15 64 -92 63 -92 53 -3 52 -3 -56 80
-56 81 33 41 c30 37 33 47 33 109 0 74 -14 103 -69 144 -36 27 -212 38 -221
14z"/>
<path d="M11820 1815 l0 -35 50 0 50 0 0 -205 0 -205 40 0 40 0 1 188 c1 103
2 194 3 202 1 11 15 16 49 18 46 3 47 4 47 38 l0 34 -140 0 -140 0 0 -35z"/>
<path d="M12202 1608 l3 -243 35 0 35 0 3 243 2 242 -40 0 -40 0 2 -242z"/>
</g>
</svg>
